<svg width="100" height="95" version="1.1" viewBox="5 0 119 98" xmlns="http://www.w3.org/2000/svg">
 <g transform="translate(0.0000,100.000000) scale(0.09,-0.1)" fill="#52aeff" stroke="none">
  <path d="M531 971 c-176 -65 -278 -205 -280 -384 -1 -97 -5 -105 -56 -115 -156 -31 -175 -300 -26 -368 109 -50 973 -32 1053 21 242 161 152 570 -126 576 -34 1 -57 23 -87 85 -79 159 -308 248 -478 185z m260 -80 c96 -40 90 -56 -96 -250 -196 -203 -189 -199 -216 -128 -39 102 45 247 143 247 42 0 43 -2 10 -38 -24 -27 -28 -42 -12 -52 12 -8 24 -11 26 -7 2 4 26 32 52 62 l49 55 -47 50 c-52 55 -111 68 -93 21 8 -20 -11 -40 -54 -61 -119 -56 -168 -214 -104 -330 26 -48 22 -55 -86 -170 -135 -144 -135 -143 -184 -99 -83 75 -30 199 91 212 58 7 60 10 54 97 -20 300 214 496 467 391z m181 -197 c18 -54 34 -66 100 -75 190 -27 273 -168 195 -332 -56 -119 -99 -129 -530 -122 l-384 5 224 240 c122 132 234 240 248 240 54 0 42 -178 -17 -236 -65 -66 -143 -77 -104 -15 37 60 2 74 -54 21 -67 -63 -26 -180 63 -180 34 0 35 34 2 45 -14 5 7 23 47 40 142 60 203 222 126 332 -30 42 -29 48 3 84 41 45 51 39 81 -47z"/>
 </g>
</svg>
