<?xml version="1.0" encoding="UTF-8" standalone="no"?>
<svg
   width="25cm"
   height="8cm"
   viewBox="0 0 250 79.999996"
   version="1.1"
   id="svg934"
   inkscape:version="1.1 (c68e22c387, 2021-05-23)"
   sodipodi:docname="works_with_valetudo_v3.svg"
   xmlns:inkscape="http://www.inkscape.org/namespaces/inkscape"
   xmlns:sodipodi="http://sodipodi.sourceforge.net/DTD/sodipodi-0.dtd"
   xmlns="http://www.w3.org/2000/svg"
   xmlns:svg="http://www.w3.org/2000/svg"
   xmlns:rdf="http://www.w3.org/1999/02/22-rdf-syntax-ns#"
   xmlns:cc="http://creativecommons.org/ns#"
   xmlns:dc="http://purl.org/dc/elements/1.1/">
  <defs
     id="defs928" />
  <sodipodi:namedview
     id="base"
     pagecolor="#ffffff"
     bordercolor="#666666"
     borderopacity="1.0"
     inkscape:pageopacity="0.0"
     inkscape:pageshadow="2"
     inkscape:zoom="3.959798"
     inkscape:cx="309.99056"
     inkscape:cy="147.86108"
     inkscape:document-units="mm"
     inkscape:current-layer="layer1"
     inkscape:document-rotation="0"
     showgrid="false"
     units="cm"
     fit-margin-top="0"
     fit-margin-left="0"
     fit-margin-right="0"
     fit-margin-bottom="0"
     showguides="true"
     inkscape:guide-bbox="true"
     inkscape:window-width="3840"
     inkscape:window-height="1537"
     inkscape:window-x="-8"
     inkscape:window-y="-8"
     inkscape:window-maximized="1"
     inkscape:pagecheckerboard="true"
     inkscape:snap-global="false">
    <sodipodi:guide
       position="80.04722,57.549357"
       orientation="1,0"
       id="guide1561" />
    <sodipodi:guide
       position="171.98794,15.053504"
       orientation="0,-1"
       id="guide1607" />
    <sodipodi:guide
       position="39.956793,152.07924"
       orientation="1,0"
       id="guide1609" />
    <sodipodi:guide
       position="60.192708,65.069935"
       orientation="0,-1"
       id="guide1616" />
    <sodipodi:guide
       position="85.044642,-1.7373512"
       orientation="1,0"
       id="guide1618" />
    <sodipodi:guide
       position="99.825168,26.412458"
       orientation="1,0"
       id="guide1620" />
    <sodipodi:guide
       position="93.999996,99.71112"
       orientation="-1,0"
       id="guide1693"
       inkscape:label=""
       inkscape:locked="false"
       inkscape:color="rgb(0,0,255)" />
  </sodipodi:namedview>
  <metadata
     id="metadata931">
    <rdf:RDF>
      <cc:Work
         rdf:about="">
        <dc:format>image/svg+xml</dc:format>
        <dc:type
           rdf:resource="http://purl.org/dc/dcmitype/StillImage" />
      </cc:Work>
    </rdf:RDF>
  </metadata>
  <g
     inkscape:groupmode="layer"
     id="layer2"
     inkscape:label="Background" />
  <g
     inkscape:label="Ebene 1"
     inkscape:groupmode="layer"
     id="layer1"
     transform="translate(-0.0377676,-0.3122568)"
     style="display:inline">
    <path
       id="rect1577-7"
       style="display:inline;fill:#ffffff;fill-opacity:1;stroke-width:0.184"
       d="M 170.11421,0.7132568 V 79.987488 H 11.952285 c -6.3074207,0 -11.38535073,-5.077928 -11.38535073,-11.385351 v -56.58001 c 0,-5.8650475 4.39139003,-10.6641536 10.07846073,-11.3088702 z"
    />
    <path
       id="rect1577"
       style="opacity:1;fill:#0076ff;fill-opacity:1;stroke-width:0.695433"
       d="M 302.54102,1.515625 V 301.13477 h 597.77734 c 23.83908,0 43.03125,-19.19217 43.03125,-43.03125 V 44.257812 c 0,-22.167109 -16.59738,-40.305463 -38.0918,-42.742187 z"
       transform="matrix(0.26458333,0,0,0.26458333,0.0377676,0.3122568)"
/>
    <rect
       style="fill:none;stroke:#000000;stroke-width:0.45722;stroke-linejoin:round;stop-color:#000000"
       id="rect837-03"
       width="249.1891"
       height="79.350708"
       x="0.44321653"
       y="0.63690281"
       ry="11.385242" />
    <g
       aria-label="works with"
       id="text859-0"
       style="font-style:normal;font-variant:normal;font-weight:normal;font-stretch:normal;font-size:25.4px;line-height:1.25;font-family:Utsaah;-inkscape-font-specification:Utsaah;letter-spacing:0px;word-spacing:0px;fill:#ffffff;fill-opacity:1;stroke:none;stroke-width:0.120973">
      <path
         d="m 96.927515,28.17075 -2.889746,-9.425781 h 1.649511 l 1.500684,5.444628 0.570508,2.021582 q 0.0248,-0.148828 0.483691,-1.947168 l 1.500684,-5.519042 h 1.637113 l 1.41386,5.469433 0.47129,1.79834 0.54571,-1.823145 1.6123,-5.444628 h 1.5627 l -2.95176,9.425781 h -1.66192 l -1.50068,-5.643067 -0.35967,-1.612304 -1.909959,7.255371 z"
         style="font-style:normal;font-variant:normal;font-weight:normal;font-stretch:normal;font-size:25.4px;font-family:Utsaah;-inkscape-font-specification:Utsaah;fill:#ffffff;fill-opacity:1;stroke-width:0.120973"
         id="path880" />
      <path
         d="m 107.72996,23.457859 q 0,-2.616894 1.45107,-3.881933 1.21543,-1.0542 2.96416,-1.0542 1.94717,0 3.175,1.277442 1.24023,1.277441 1.24023,3.522265 0,1.823145 -0.5457,2.864942 -0.5457,1.041797 -1.5875,1.624707 -1.0418,0.570508 -2.28203,0.570508 -1.97197,0 -3.1998,-1.26504 -1.21543,-1.277441 -1.21543,-3.658691 z m 1.63711,0 q 0,1.810742 0.79375,2.716113 0.79375,0.892969 1.98437,0.892969 1.19063,0 1.98438,-0.905371 0.79375,-0.905371 0.79375,-2.75332 0,-1.761133 -0.80616,-2.654102 -0.79375,-0.905371 -1.97197,-0.905371 -1.19062,0 -1.98437,0.905371 -0.79375,0.892969 -0.79375,2.703711 z"
         style="font-style:normal;font-variant:normal;font-weight:normal;font-stretch:normal;font-size:25.4px;font-family:Utsaah;-inkscape-font-specification:Utsaah;fill:#ffffff;fill-opacity:1;stroke-width:0.120973"
         id="path882" />
      <path
         d="m 118.42078,28.17075 v -9.425781 h 1.43867 v 1.426269 q 0.5581,-1.00459 1.01699,-1.327051 0.47129,-0.322461 1.02939,-0.322461 0.80616,0 1.63711,0.520899 l -0.5457,1.488281 q -0.58291,-0.347266 -1.17822,-0.347266 -0.5209,0 -0.94258,0.310059 -0.40928,0.310059 -0.58291,0.880566 -0.27285,0.84336 -0.27285,1.860352 v 4.936133 z"
         style="font-style:normal;font-variant:normal;font-weight:normal;font-stretch:normal;font-size:25.4px;font-family:Utsaah;-inkscape-font-specification:Utsaah;fill:#ffffff;fill-opacity:1;stroke-width:0.120973"
         id="path884" />
      <path
         d="M 124.49792,28.17075 V 15.148289 h 1.59991 v 7.429004 l 3.78271,-3.832324 h 2.07119 l -3.60908,3.49746 3.96875,5.928321 h -1.95957 l -3.12539,-4.824512 -1.12861,1.091406 v 3.733106 z"
         style="font-style:normal;font-variant:normal;font-weight:normal;font-stretch:normal;font-size:25.4px;font-family:Utsaah;-inkscape-font-specification:Utsaah;fill:#ffffff;fill-opacity:1;stroke-width:0.120973"
         id="path886" />
      <path
         d="m 132.94392,25.355418 1.5875,-0.248047 q 0.12402,0.95498 0.73174,1.463476 0.60771,0.496094 1.69912,0.496094 1.10381,0 1.63711,-0.446484 0.5333,-0.446485 0.5333,-1.054199 0,-0.533301 -0.47129,-0.855762 -0.32246,-0.21084 -1.63711,-0.533301 -1.74873,-0.446484 -2.43086,-0.768945 -0.68213,-0.322461 -1.02939,-0.892969 -0.34727,-0.58291 -0.34727,-1.265039 0,-0.63252 0.28526,-1.16582 0.28525,-0.545703 0.78134,-0.905371 0.37207,-0.272852 1.017,-0.458887 0.64492,-0.198438 1.38906,-0.198438 1.10381,0 1.93476,0.322461 0.84336,0.322461 1.24024,0.868164 0.40928,0.545703 0.5581,1.463477 l -1.56269,0.21084 q -0.11162,-0.731739 -0.62012,-1.141016 -0.5085,-0.409277 -1.43867,-0.409277 -1.10381,0 -1.5751,0.37207 -0.47129,0.359668 -0.47129,0.843359 0,0.322461 0.19844,0.570508 0.19844,0.248047 0.60771,0.42168 0.24805,0.08682 1.41387,0.409277 1.69912,0.446485 2.36885,0.744141 0.66973,0.285254 1.0542,0.843359 0.38447,0.545703 0.38447,1.364258 0,0.79375 -0.47129,1.500684 -0.47129,0.706933 -1.35185,1.091406 -0.86817,0.384473 -1.98438,0.384473 -1.83555,0 -2.80293,-0.756543 -0.95498,-0.768946 -1.22783,-2.269629 z"
         style="font-style:normal;font-variant:normal;font-weight:normal;font-stretch:normal;font-size:25.4px;font-family:Utsaah;-inkscape-font-specification:Utsaah;fill:#ffffff;fill-opacity:1;stroke-width:0.120973"
         id="path888" />
      <path
         d="m 149.46384,28.17075 -2.88974,-9.425781 h 1.64951 l 1.50068,5.444628 0.57051,2.021582 q 0.0248,-0.148828 0.48369,-1.947168 l 1.50068,-5.519042 h 1.63711 l 1.41387,5.469433 0.47129,1.79834 0.5457,-1.823145 1.61231,-5.444628 h 1.56269 l -2.95176,9.425781 h -1.66191 l -1.50068,-5.643067 -0.35967,-1.612304 -1.90996,7.255371 z"
         style="font-style:normal;font-variant:normal;font-weight:normal;font-stretch:normal;font-size:25.4px;font-family:Utsaah;-inkscape-font-specification:Utsaah;fill:#ffffff;fill-opacity:1;stroke-width:0.120973"
         id="path890" />
      <path
         d="m 160.8616,16.996238 v -1.847949 h 1.5999 v 1.847949 z m 0,11.174512 v -9.425781 h 1.5999 v 9.425781 z"
         style="font-style:normal;font-variant:normal;font-weight:normal;font-stretch:normal;font-size:25.4px;font-family:Utsaah;-inkscape-font-specification:Utsaah;fill:#ffffff;fill-opacity:1;stroke-width:0.120973"
         id="path892" />
      <path
         d="m 168.38981,26.74448 0.23565,1.413867 q -0.68213,0.136426 -1.21543,0.136426 -0.86816,0 -1.35186,-0.272851 -0.47128,-0.272852 -0.66972,-0.719336 -0.19844,-0.458887 -0.19844,-1.897559 v -5.419824 h -1.16582 v -1.240234 h 1.16582 v -2.344043 l 1.5875,-0.954981 v 3.299024 h 1.6123 v 1.240234 h -1.6123 v 5.50664 q 0,0.694532 0.0868,0.892969 0.0868,0.186035 0.27285,0.310059 0.19844,0.111621 0.5457,0.111621 0.27285,0 0.70693,-0.06201 z"
         style="font-style:normal;font-variant:normal;font-weight:normal;font-stretch:normal;font-size:25.4px;font-family:Utsaah;-inkscape-font-specification:Utsaah;fill:#ffffff;fill-opacity:1;stroke-width:0.120973"
         id="path894" />
      <path
         d="M 169.95252,28.17075 V 15.148289 h 1.5999 v 4.675683 q 1.11621,-1.302246 2.81533,-1.302246 1.0542,0 1.82314,0.42168 0.76895,0.409277 1.10381,1.141016 0.33487,0.719336 0.33487,2.108398 v 5.97793 h -1.59991 v -5.97793 q 0,-1.203027 -0.52089,-1.74873 -0.5209,-0.545703 -1.46348,-0.545703 -0.71934,0 -1.33945,0.37207 -0.62012,0.37207 -0.89297,1.00459 -0.26045,0.632519 -0.26045,1.736328 v 5.159375 z"
         style="font-style:normal;font-variant:normal;font-weight:normal;font-stretch:normal;font-size:25.4px;font-family:Utsaah;-inkscape-font-specification:Utsaah;fill:#ffffff;fill-opacity:1;stroke-width:0.120973"
         id="path896" />
    </g>
    <g
            aria-label="No"
            id="text859-0-4a"
            style="font-style:normal;font-variant:normal;font-weight:normal;font-stretch:normal;font-size:50.8px;line-height:1.25;font-family:Utsaah;-inkscape-font-specification:Utsaah;letter-spacing:0px;word-spacing:0px;fill:#ff3030;fill-opacity:1;stroke:none;stroke-width:0.142746"
            transform="translate(35.00,70.000000) scale(0.035,-0.035)">
      <path d="M1690 831 c-152 -22 -157 -25 -103 -48 l57 -24 -13 -244 c-12 -206 -20 -250 -53 -278 -57 -50 -48 -57 67 -57 58 -1 167 -10 243 -21 157 -22 181 -15 97 28 -54 28 -213 455 -168 452 7 0 84 -106 171 -235 l158 -234 122 7 c117 7 120 8 68 35 -45 24 -52 38 -44 93 61 433 67 460 102 486 32 25 28 28 -44 29 -44 0 -129 5 -190 12 -94 9 -105 7 -78 -16 31 -25 95 -426 72 -448 -5 -5 -58 101 -118 236 -123 278 -103 264 -346 227z"/>
      <path d="M2631 665 c-175 -44 -252 -269 -140 -403 159 -189 469 -85 469 157 0 176 -153 291 -329 246z m89 -122 c0 -51 -40 -83 -103 -83 -74 0 -85 26 -31 75 77 70 134 74 134 8z"/>
    </g>>
    <g
            aria-label="No"
            id="text859-0-4b"
            style="font-style:normal;font-variant:normal;font-weight:normal;font-stretch:normal;font-size:50.8px;line-height:1.25;font-family:Utsaah;-inkscape-font-specification:Utsaah;letter-spacing:0px;word-spacing:0px;fill:#ffffff;fill-opacity:1;stroke:none;stroke-width:0.142746"
            transform="translate(35.00,70.000000) scale(0.035,-0.035)">
      <path d="M3253 851 c-165 -59 -244 -192 -229 -382 22 -263 290 -391 511 -244 98 64 113 66 126 13 6 -27 18 18 30 109 19 151 19 155 -21 142 -165 -54 -270 -15 -270 99 0 122 133 162 233 70 l53 -48 -12 50 c-6 28 -18 85 -25 128 -11 57 -19 69 -32 47 -15 -27 -25 -26 -91 7 -87 44 -166 47 -273 9z m19 -393 c37 -41 37 -42 -2 -35 -40 7 -69 33 -70 62 0 28 34 15 72 -27z"/>
      <path d="M3940 840 c-60 -20 -137 -43 -170 -51 l-60 -15 50 -13 c50 -13 50 -14 56 -276 l5 -263 -55 -30 c-56 -30 -55 -30 54 -30 153 0 286 25 225 42 -56 15 -56 27 -5 385 22 154 40 282 40 285 0 10 -28 4 -140 -34z"/>
      <path d="M5600 863 c0 -5 12 -19 27 -31 15 -12 41 -77 58 -144 l29 -123 -70 48 c-164 111 -324 13 -324 -199 0 -170 81 -221 390 -245 177 -13 179 -13 145 25 -52 58 -53 594 0 624 19 10 30 23 25 28 -13 12 -280 28 -280 17z m49 -366 c64 -76 43 -116 -44 -86 -42 15 -56 35 -61 84 -9 85 35 86 105 2z"/>
      <path d="M4281 654 c-153 -53 -213 -269 -110 -392 160 -190 469 -85 469 158 0 189 -170 299 -359 234z m119 -111 c0 -51 -40 -83 -103 -83 -97 0 -91 54 12 108 65 34 91 26 91 -25z"/>
      <path d="M4824 660 c-118 -18 -161 -40 -76 -40 l55 0 -44 -62 c-176 -246 66 -490 355 -359 145 66 187 215 97 348 -28 40 -43 73 -34 73 8 0 32 12 52 27 32 23 20 24 -85 7 -113 -18 -121 -22 -102 -59 47 -87 -42 -193 -113 -134 -37 31 -37 86 2 160 16 32 23 58 15 57 -9 -2 -64 -10 -122 -18z"/>
    </g>
    <g
            id="g953"
            transform="translate(05.00000,68.000000) scale(0.050,-0.050)" fill="#52aeff" stroke="none">
      <path d="M531 971 c-176 -65 -278 -205 -280 -384 -1 -97 -5 -105 -56 -115 -156 -31 -175 -300 -26 -368 109 -50 973 -32 1053 21 242 161 152 570 -126 576 -34 1 -57 23 -87 85 -79 159 -308 248 -478 185z m260 -80 c96 -40 90 -56 -96 -250 -196 -203 -189 -199 -216 -128 -39 102 45 247 143 247 42 0 43 -2 10 -38 -24 -27 -28 -42 -12 -52 12 -8 24 -11 26 -7 2 4 26 32 52 62 l49 55 -47 50 c-52 55 -111 68 -93 21 8 -20 -11 -40 -54 -61 -119 -56 -168 -214 -104 -330 26 -48 22 -55 -86 -170 -135 -144 -135 -143 -184 -99 -83 75 -30 199 91 212 58 7 60 10 54 97 -20 300 214 496 467 391z m181 -197 c18 -54 34 -66 100 -75 190 -27 273 -168 195 -332 -56 -119 -99 -129 -530 -122 l-384 5 224 240 c122 132 234 240 248 240 54 0 42 -178 -17 -236 -65 -66 -143 -77 -104 -15 37 60 2 74 -54 21 -67 -63 -26 -180 63 -180 34 0 35 34 2 45 -14 5 7 23 47 40 142 60 203 222 126 332 -30 42 -29 48 3 84 41 45 51 39 81 -47z"/>
    </g>
  </g>
</svg>
