<svg width="550" height="95" enable-background="new 0 0 600 400" version="1.1" viewBox="0 0 550 95" xml:space="preserve" xmlns="http://www.w3.org/2000/svg">
    <g transform="translate(0.00000,100.000000) scale(0.093,-0.1)" fill="#52aeff" stroke="none">
        <path d="M531 971 c-176 -65 -278 -205 -280 -384 -1 -97 -5 -105 -56 -115 -156 -31 -175 -300 -26 -368 109 -50 973 -32 1053 21 242 161 152 570 -126 576 -34 1 -57 23 -87 85 -79 159 -308 248 -478 185z m260 -80 c96 -40 90 -56 -96 -250 -196 -203 -189 -199 -216 -128 -39 102 45 247 143 247 42 0 43 -2 10 -38 -24 -27 -28 -42 -12 -52 12 -8 24 -11 26 -7 2 4 26 32 52 62 l49 55 -47 50 c-52 55 -111 68 -93 21 8 -20 -11 -40 -54 -61 -119 -56 -168 -214 -104 -330 26 -48 22 -55 -86 -170 -135 -144 -135 -143 -184 -99 -83 75 -30 199 91 212 58 7 60 10 54 97 -20 300 214 496 467 391z m181 -197 c18 -54 34 -66 100 -75 190 -27 273 -168 195 -332 -56 -119 -99 -129 -530 -122 l-384 5 224 240 c122 132 234 240 248 240 54 0 42 -178 -17 -236 -65 -66 -143 -77 -104 -15 37 60 2 74 -54 21 -67 -63 -26 -180 63 -180 34 0 35 34 2 45 -14 5 7 23 47 40 142 60 203 222 126 332 -30 42 -29 48 3 84 41 45 51 39 81 -47z"/>
    </g>
    <g transform="translate(0.00000,100.000000) scale(0.093,-0.1)" fill="#ff3030" stroke="none">
        <path d="M1690 831 c-152 -22 -157 -25 -103 -48 l57 -24 -13 -244 c-12 -206 -20 -250 -53 -278 -57 -50 -48 -57 67 -57 58 -1 167 -10 243 -21 157 -22 181 -15 97 28 -54 28 -213 455 -168 452 7 0 84 -106 171 -235 l158 -234 122 7 c117 7 120 8 68 35 -45 24 -52 38 -44 93 61 433 67 460 102 486 32 25 28 28 -44 29 -44 0 -129 5 -190 12 -94 9 -105 7 -78 -16 31 -25 95 -426 72 -448 -5 -5 -58 101 -118 236 -123 278 -103 264 -346 227z"/>
        <path d="M2631 665 c-175 -44 -252 -269 -140 -403 159 -189 469 -85 469 157 0 176 -153 291 -329 246z m89 -122 c0 -51 -40 -83 -103 -83 -74 0 -85 26 -31 75 77 70 134 74 134 8z"/>
    </g>>
    <g transform="translate(0.00000,100.000000) scale(0.093,-0.1)" fill="#0076ff" stroke="none">
        <path d="M3253 851 c-165 -59 -244 -192 -229 -382 22 -263 290 -391 511 -244 98 64 113 66 126 13 6 -27 18 18 30 109 19 151 19 155 -21 142 -165 -54 -270 -15 -270 99 0 122 133 162 233 70 l53 -48 -12 50 c-6 28 -18 85 -25 128 -11 57 -19 69 -32 47 -15 -27 -25 -26 -91 7 -87 44 -166 47 -273 9z m19 -393 c37 -41 37 -42 -2 -35 -40 7 -69 33 -70 62 0 28 34 15 72 -27z"/>
        <path d="M3940 840 c-60 -20 -137 -43 -170 -51 l-60 -15 50 -13 c50 -13 50 -14 56 -276 l5 -263 -55 -30 c-56 -30 -55 -30 54 -30 153 0 286 25 225 42 -56 15 -56 27 -5 385 22 154 40 282 40 285 0 10 -28 4 -140 -34z"/>
        <path d="M5600 863 c0 -5 12 -19 27 -31 15 -12 41 -77 58 -144 l29 -123 -70 48 c-164 111 -324 13 -324 -199 0 -170 81 -221 390 -245 177 -13 179 -13 145 25 -52 58 -53 594 0 624 19 10 30 23 25 28 -13 12 -280 28 -280 17z m49 -366 c64 -76 43 -116 -44 -86 -42 15 -56 35 -61 84 -9 85 35 86 105 2z"/>
        <path d="M4281 654 c-153 -53 -213 -269 -110 -392 160 -190 469 -85 469 158 0 189 -170 299 -359 234z m119 -111 c0 -51 -40 -83 -103 -83 -97 0 -91 54 12 108 65 34 91 26 91 -25z"/>
        <path d="M4824 660 c-118 -18 -161 -40 -76 -40 l55 0 -44 -62 c-176 -246 66 -490 355 -359 145 66 187 215 97 348 -28 40 -43 73 -34 73 8 0 32 12 52 27 32 23 20 24 -85 7 -113 -18 -121 -22 -102 -59 47 -87 -42 -193 -113 -134 -37 31 -37 86 2 160 16 32 23 58 15 57 -9 -2 -64 -10 -122 -18z"/>
    </g>
</svg>
